# xmcd
#
# Track frame offsets:
#	150
#	19911
#	40978
#	62010
#	81513
#	98534
#	126322
#	145379
#	158270
#	176420
#	199812
#	222236
#	238948
#	258950
#
# Disc length: 3772 seconds
#
# Revision: 1
# Processed by: cddbd v1.5.2PL0 Copyright (c) Steve Scherf et al.
# Submitted via: audiograbber 1.83.01
#
DISCID=c20eba0e
DTITLE=Sadie's Rangers - Sadie's Rangers
DYEAR=1900
DGENRE=
TTITLE0=Cotton Was a Watermelon
TTITLE1=Days Like This
TTITLE2=Weathervane
TTITLE3=Fisherman Jack
TTITLE4=U O Me $$
TTITLE5=The Middleman
TTITLE6=A M Tejano
TTITLE7=The Book
TTITLE8=Dance Marionette
TTITLE9=Lazy And Scattered
TTITLE10=Not Long Ago
TTITLE11=Rusty Flowers
TTITLE12=Mary
TTITLE13=Lillie
EXTD=
EXTT0=
EXTT1=
EXTT2=
EXTT3=
EXTT4=
EXTT5=
EXTT6=
EXTT7=
EXTT8=
EXTT9=
EXTT10=
EXTT11=
EXTT12=
EXTT13=
PLAYORDER=
